<svg xmlns="http://www.w3.org/2000/svg" xmlns:xlink="http://www.w3.org/1999/xlink" style="margin: auto; background: rgba(255, 255, 255, 0); display: block; z-index: 1; position: relative; shape-rendering: auto;" width="1667" height="100" preserveAspectRatio="xMidYMid"><rect id="backgroundrect" width="100%" height="100%" x="0" y="0" fill="none" stroke="none"/>

<style type="text/css">.lded &gt; .content, .lded &gt; .content &gt; .inner { height: 100%; }
.lded &gt; .content &gt; .inner &gt; .viewer { width: 100%; height: 100%; max-width: 100%; overflow: hidden }
.lded &gt; .content &gt; .inner &gt; .panel {
  position: absolute;
  bottom: 50px;
  left: 0;
  right: 0;
  opacity: 0.3;
}
.lded &gt; .content &gt; .inner &gt; .panel:hover { opacity: 1; }
.lded &gt; .content &gt; .inner &gt; .ctrl {
  position: absolute;
  bottom: 13px;
  left: 0;
  right: 0;
  margin: auto;
}
.lded &gt; .content &gt; .inner &gt; .ctrl:hover {
  z-index: 10;
}
#editor &gt; .inner &gt; .title {
  position: absolute;
  bottom: 195px;
  left: 0;
  right: 0;
  z-index: 11;
}
#editor &gt; .inner &gt; .title &gt; a:first-child {
  margin-left: 0!important;
#editor .lded .viewer { border-radius: 0 }</style><g class="currentLayer" style=""><title>Layer 1</title><g id="svg_1"><defs>
  <linearGradient id="ldbk-photon-nq4q5u6dq7r-lg" x1="0" x2="0.9599640130567636" y1="0" y2="0">
    <stop stop-color="#ff00ff" offset="0"/>
    <stop stop-color="#00ffff" offset="1"/>
  </linearGradient>
  <mask id="ldbk-photon-nq4q5u6dq7r-mask">
  <g id="svg_2"><path d="M-285.3094997406006,-0.5 L1563.1023153480444,-0.5 A10,10 0 0 1 1563.1023153480444,20.5 L-285.3094997406006,20.5 " fill="#fff" id="svg_3" transform="translate(16.4201 0)">
  <animateTransform attributeName="transform" type="translate" dur="7s" repeatCount="indefinite" keyTimes="0;0.5;1" calcMode="spline" keySplines="0.5 0 0.5 1;0.5 0 0.5 1" values="20;0;20" begin="0s"/>
</path><path d="M3369.6471855989957,-0.5 L3392.7818102058327,-0.5 A10,10 0 0 1 3392.7818102058327,20.5 L3369.6471855989957,20.5 A10,10 0 0 1 3369.6471855989957,-0.5 " fill="#fff" id="svg_4" transform="translate(1932.21 0)">
  <animateTransform attributeName="transform" type="translate" dur="7s" repeatCount="indefinite" keyTimes="0;1" values="0;2293.5201731434045" begin="0s"/>
  <animate attributeName="opacity" dur="7s" repeatCount="indefinite" keyTimes="0;0.3;1" values="1;1;0" begin="0s"/>
</path><path d="M-282.64929962158203,19.5 L1313.3026679036977,19.5 A10,10 0 0 0 1313.3026679036977,40.5 L-282.64929962158203,40.5 " fill="#fff" id="svg_5" transform="translate(15.175 0)">
  <animateTransform attributeName="transform" type="translate" dur="5s" repeatCount="indefinite" keyTimes="0;0.5;1" calcMode="spline" keySplines="0.5 0 0.5 1;0.5 0 0.5 1" values="20;0;20" begin="-6.000000000000001s"/>
</path><path d="M824.3128799592735,19.5 L855.0050048828125,19.5 A10,10 0 0 1 855.0050048828125,40.5 L824.3128799592735,40.5 A10,10 0 0 1 824.3128799592735,19.5 " fill="#000" id="svg_6" transform="translate(906.844 0)">
  <animateTransform attributeName="transform" type="translate" dur="10s" repeatCount="indefinite" keyTimes="0;1" values="0;1537.7425833797638" begin="-6.000000000000001s"/>
  <animate attributeName="opacity" dur="10s" repeatCount="indefinite" keyTimes="0;0.3;1" values="1;1;0" begin="-6.000000000000001s"/>
</path><path d="M-299.91727290302515,39.5 L1407.7007598288292,39.5 A10,10 0 0 1 1407.7007598288292,60.5 L-299.91727290302515,60.5 " fill="#fff" id="svg_7" transform="translate(0.381621 0)">
  <animateTransform attributeName="transform" type="translate" dur="7s" repeatCount="indefinite" keyTimes="0;0.5;1" calcMode="spline" keySplines="0.5 0 0.5 1;0.5 0 0.5 1" values="20;0;20" begin="-12.000000000000002s"/>
</path><path d="M1620.5086387237668,39.5 L1647.3500273607606,39.5 A10,10 0 0 1 1647.3500273607606,60.5 L1620.5086387237668,60.5 A10,10 0 0 1 1620.5086387237668,39.5 " fill="#fff" id="svg_8" transform="translate(291.55 0)">
  <animateTransform attributeName="transform" type="translate" dur="10s" repeatCount="indefinite" keyTimes="0;1" values="0;1536.7009526562479" begin="-12.000000000000002s"/>
  <animate attributeName="opacity" dur="10s" repeatCount="indefinite" keyTimes="0;0.3;1" values="1;1;0" begin="-12.000000000000002s"/>
</path><path d="M-299.83453300595284,59.5 L1264.5660769577046,59.5 A10,10 0 0 0 1264.5660769577046,80.5 L-299.83453300595284,80.5 " fill="#fff" id="svg_9" transform="translate(0.781769 0)">
  <animateTransform attributeName="transform" type="translate" dur="5s" repeatCount="indefinite" keyTimes="0;0.5;1" calcMode="spline" keySplines="0.5 0 0.5 1;0.5 0 0.5 1" values="20;0;20" begin="-18s"/>
</path><path d="M1211.2030902300196,59.5 L1237.7900390625,59.5 A10,10 0 0 1 1237.7900390625,80.5 L1211.2030902300196,80.5 A10,10 0 0 1 1211.2030902300196,59.5 " fill="#000" id="svg_10" transform="translate(1291.66 0)">
  <animateTransform attributeName="transform" type="translate" dur="10s" repeatCount="indefinite" keyTimes="0;1" values="0;1635.5820117840617" begin="-18s"/>
  <animate attributeName="opacity" dur="10s" repeatCount="indefinite" keyTimes="0;0.3;1" values="1;1;0" begin="-18s"/>
</path><path d="M-297.64720010757446,79.5 L1343.2863125201502,79.5 A10,10 0 0 1 1343.2863125201502,100.5 L-297.64720010757446,100.5 " fill="#fff" id="svg_11" transform="translate(1.60095 0)">
  <animateTransform attributeName="transform" type="translate" dur="10s" repeatCount="indefinite" keyTimes="0;0.5;1" calcMode="spline" keySplines="0.5 0 0.5 1;0.5 0 0.5 1" values="20;0;20" begin="-24.000000000000004s"/>
</path><path d="M1932.7121810224921,79.5 L1964.0165204402247,79.5 A10,10 0 0 1 1964.0165204402247,100.5 L1932.7121810224921,100.5 A10,10 0 0 1 1932.7121810224921,79.5 " fill="#fff" id="svg_12" transform="translate(679.165 0)">
  <animateTransform attributeName="transform" type="translate" dur="10s" repeatCount="indefinite" keyTimes="0;1" values="0;1742.6803570772145" begin="-24.000000000000004s"/>
  <animate attributeName="opacity" dur="10s" repeatCount="indefinite" keyTimes="0;0.3;1" values="1;1;0" begin="-24.000000000000004s"/>
</path>    </g>
  </mask>
</defs>
<rect x="0" y="0" width="1667" height="100" fill="url(#ldbk-photon-nq4q5u6dq7r-lg)" mask="url(#ldbk-photon-nq4q5u6dq7r-mask)" id="svg_13"/></g></g></svg>